<?xml version="1.0" encoding="UTF-8"?>
<svg id="Camada_1" data-name="Camada 1" xmlns="http://www.w3.org/2000/svg" version="1.1" viewBox="0 0 507.41 323.46">
  <defs>
    <style>
      .cls-1 {
        fill: #1f6d3d;
        stroke-width: 0px;
      }
    </style>
  </defs>
  <path class="cls-1" d="M240.46,277.51c71.76-50.96,129.65-114.45,172.89-191.25-56.17,68.56-117.56,131.87-186.86,188.6-21.35-58.37-21.52-113.65,17.09-164.7,23.45-30.99,54.81-51.4,90.62-65.46,35.69-14.02,72.85-19.53,111.01-19.09,6.8.08,13.64.36,20.37,1.25,1.96.26,5.01,2.81,5.18,4.54,6.42,66.23-6.13,127.79-47.97,180.96-35.45,45.05-82.96,67.56-140.09,69.35-13.95.44-27.95-1.03-41.93-1.63l-.31-2.57Z"/>
  <path class="cls-1" d="M197.55,268.35c-33.02-57.81-74.8-105.29-127.94-142.56,45.7,46.14,87.2,95.67,123.6,150.97-16.47,4.3-32.22,6.44-48.35,5.02-48.69-4.27-81.26-30.9-101.56-74.02-18.51-39.33-20.89-80.49-12.58-122.6.39-1.97,3.83-4.88,5.72-4.79,63.62,2.99,117.91,24.18,151.61,81.93,19.09,32.72,19.39,68.14,9.49,106.05Z"/>
</svg>