<svg width="91" height="18" viewBox="0 0 91 18" fill="none" xmlns="http://www.w3.org/2000/svg">
<path d="M0 5.82533C0.281862 5.20705 0.620124 5.10248 0.960178 5.0052C10.1789 2.36387 19.4849 0.239903 29.1382 0.0235056C34.2644 -0.0910577 39.3389 0.184446 44.3215 1.4901C45.4926 1.79652 46.6309 2.19476 47.6557 2.85032C49.5814 4.08324 50.246 5.72805 49.7478 7.94295C49.3122 9.88143 49.3123 9.89142 51.3535 9.87778C64.3246 9.79504 77.1066 8.4712 89.414 4.04596C89.7831 3.91321 90.1523 3.58134 90.7188 3.90048C90.3314 4.63878 89.5767 4.88699 88.9503 5.2516C84.4214 7.88928 79.5024 9.39044 74.3671 10.3051C66.4368 11.7172 58.42 11.7081 50.4133 11.7853C48.5594 11.8035 47.0756 12.2618 45.518 13.3238C41.3374 16.1742 36.7285 17.8899 31.5395 17.569C30.5384 17.5071 29.5592 17.3589 28.6418 16.9589C26.3842 15.9733 26.1586 14.0484 28.1217 12.5146C29.2037 11.669 30.4802 11.2244 31.7959 10.9043C33.939 10.3833 36.1275 10.1551 38.3242 10.0796C40.9455 9.98961 43.5705 10.0069 46.1927 9.93417C47.7702 9.89052 48.3394 9.33678 48.5122 7.77926C48.6867 6.20447 48.0102 5.02883 46.7191 4.18506C45.4535 3.35857 44.0242 2.93305 42.5676 2.61027C38.4578 1.69922 34.2908 1.48464 30.0956 1.59466C22.1908 1.80196 14.4386 3.01035 6.80926 5.06521C5.64726 5.37799 4.46251 5.61166 3.2796 5.83715C2.2458 6.03446 1.20292 6.15538 0 5.82533ZM45.2516 12.3963C44.717 11.7872 44.3488 11.8044 44.0051 11.7972C40.8882 11.7299 37.7714 11.8008 34.6709 12.1109C33.0561 12.2718 31.4422 12.5655 29.9438 13.2538C29.1782 13.6057 28.1462 13.922 28.1781 14.8767C28.2117 15.9178 29.3282 16.0233 30.1302 16.1751C35.6938 17.2235 40.53 15.4159 45.2516 12.3963Z" fill="#5F6C37"/>
</svg>
