<svg width="91" height="18" viewBox="0 0 91 18" fill="none" xmlns="http://www.w3.org/2000/svg">
<path d="M0 3.54699C2.08851 4.18436 4.18247 4.80809 6.26643 5.46274C14.7132 8.11406 23.3882 9.32608 32.2123 9.6143C34.8345 9.69977 37.4558 9.82252 40.0781 9.85707C41.6074 9.87707 41.6629 9.74613 41.3592 8.30773C40.7246 5.30726 41.541 3.56882 44.3506 2.32135C47.502 0.92204 50.8843 0.462864 54.2839 0.211007C65.0165 -0.584572 75.4909 0.921112 85.7952 3.85884C87.36 4.30528 88.9303 4.73262 90.4932 5.18451C90.6078 5.21815 90.6869 5.37635 90.7896 5.48455C90.7578 6.15192 90.2241 5.98465 89.8559 5.99738C88.2783 6.05102 86.7572 5.68188 85.2506 5.28454C77.2748 3.17876 69.1963 1.7667 60.9277 1.57758C56.7325 1.4812 52.5664 1.68489 48.4558 2.59594C47.0664 2.90417 45.7126 3.32332 44.4779 4.04889C43.304 4.739 42.5776 5.75096 42.4839 7.13209C42.3575 9.00602 43.1622 9.89252 45.0425 9.92979C48.8685 10.0053 52.6991 9.88706 56.5097 10.3962C57.9218 10.5854 59.3111 10.8463 60.6458 11.3337C61.3068 11.5746 61.9597 11.8819 62.5489 12.2629C63.5299 12.8975 64.3846 13.7022 64.18 15.0152C63.9918 16.2208 63.0299 16.7409 61.9815 17.0837C59.6921 17.8338 57.3417 17.7519 55.0377 17.3128C51.3035 16.6017 47.8347 15.1652 44.8015 12.8394C43.8387 12.1011 42.864 11.8047 41.6765 11.7901C37.0685 11.7346 32.4569 11.7001 27.8543 11.4928C22.1825 11.2382 16.5535 10.5735 11.0663 9.02056C7.08201 7.89402 3.34871 6.22741 0 3.54699ZM46.0299 12.1711C46.079 12.2947 46.1008 12.4475 46.1863 12.5448C46.3236 12.7021 46.4873 12.8457 46.6646 12.9557C49.5796 14.7678 52.7092 16.0207 56.1379 16.3835C57.8218 16.5617 59.5247 16.5799 61.1832 16.0935C61.8542 15.8971 62.7052 15.8007 62.818 14.9761C62.9498 14.0159 62.0524 13.6868 61.3723 13.3885C60.474 12.9939 59.5266 12.6566 58.5664 12.4656C54.7331 11.7019 50.8434 11.7719 46.96 11.7883C46.6091 11.7892 46.2518 11.8274 46.0299 12.1711Z" fill="#5F6C37"/>
</svg>
